<svg width="512" height="512" viewBox="0 0 512 512" fill="none" xmlns="http://www.w3.org/2000/svg">
  <!-- Fondo con gradiente tecnológico -->
  <defs>
    <linearGradient id="techGradient" x1="0%" y1="0%" x2="100%" y2="100%">
      <stop offset="0%" style="stop-color:#0a0a0a;stop-opacity:1" />
      <stop offset="50%" style="stop-color:#1a1a2e;stop-opacity:1" />
      <stop offset="100%" style="stop-color:#16213e;stop-opacity:1" />
    </linearGradient>
    <linearGradient id="logoGradient" x1="0%" y1="0%" x2="100%" y2="100%">
      <stop offset="0%" style="stop-color:#00d4ff;stop-opacity:1" />
      <stop offset="100%" style="stop-color:#0099cc;stop-opacity:1" />
    </linearGradient>
  </defs>
  
  <!-- Fondo redondeado -->
  <rect width="512" height="512" rx="80" fill="url(#techGradient)"/>
  
  <!-- Circuitos de fondo -->
  <g opacity="0.1" stroke="#00d4ff" stroke-width="2" fill="none">
    <path d="M80 80L432 80L432 432L80 432Z"/>
    <path d="M120 120L392 120L392 392L120 392Z"/>
    <circle cx="140" cy="140" r="8"/>
    <circle cx="372" cy="140" r="8"/>
    <circle cx="140" cy="372" r="8"/>
    <circle cx="372" cy="372" r="8"/>
  </g>
  
  <!-- Logo principal: N estilizada -->
  <g transform="translate(256,256)">
    <!-- N principal -->
    <path d="M-60 -80L-60 80L-30 80L-30 -20L30 80L60 80L60 -80L30 -80L30 20L-30 -80Z" fill="url(#logoGradient)"/>
    
    <!-- Efectos de brillo -->
    <path d="M-60 -80L-60 80L-30 80L-30 -20L30 80L60 80L60 -80L30 -80L30 20L-30 -80Z" 
          fill="none" stroke="#00d4ff" stroke-width="2" opacity="0.6"/>
  </g>
  
  <!-- Puntos decorativos -->
  <circle cx="150" cy="180" r="4" fill="#00d4ff" opacity="0.8"/>
  <circle cx="362" cy="200" r="3" fill="#00d4ff" opacity="0.6"/>
  <circle cx="180" cy="340" r="5" fill="#00d4ff" opacity="0.7"/>
  <circle cx="340" cy="320" r="3" fill="#00d4ff" opacity="0.9"/>
  
  <!-- Texto NazaDev -->
  <text x="256" y="420" text-anchor="middle" fill="#00d4ff" font-family="Consolas, monospace" font-size="32" font-weight="bold">NazaDev</text>
</svg>


